# xmcd
#
# Track frame offsets: 
#        150
#        12838
#        27836
#        48784
#        66382
#        83936
#        94553
#        99309
#        107150
#        119913
#        127209
#
# Disc length: 1900 seconds
#
# Revision: 0
# Processed by: cddbd v1.5PL3 Copyright (c) Steve Scherf et al.
# Submitted via: ExactAudioCopy v0.95a4
#
DISCID=91076a0b
DTITLE=Harmonica Hinds - With the Banjo
DYEAR=1900
DGENRE=Blues
TTITLE0=The Funky Stuff
TTITLE1=Stop Complaining
TTITLE2=It's So Cold
TTITLE3=Kill THat Mouse
TTITLE4=My Heart's Gonna Be in Misery
TTITLE5=Goin Back Home
TTITLE6=Under the Shady Tree
TTITLE7=Traditional Whooping the Blues
TTITLE8=The Way It Is
TTITLE9=Hamban
TTITLE10=Respect the Old Stuff
EXTD=
EXTT0=
EXTT1=
EXTT2=
EXTT3=
EXTT4=
EXTT5=
EXTT6=
EXTT7=
EXTT8=
EXTT9=
EXTT10=
PLAYORDER=
